<svg width="136" height="48" viewBox="0 0 136 48" fill="none" xmlns="http://www.w3.org/2000/svg">
<g clip-path="url(#clip0_0_869)">
<path d="M27.866 16.7003C22.9853 16.7003 19.1717 20.4054 19.1717 25.3654C19.1717 30.3254 22.8889 33.9988 27.866 33.9988C32.8431 33.9988 36.625 30.262 36.625 25.3337C36.625 20.4371 32.9077 16.7003 27.866 16.7003ZM27.8989 30.4242C25.1195 30.4242 23.0828 28.2656 23.0828 25.3666C23.0828 22.4348 25.0866 20.2774 27.866 20.2774C30.6783 20.2774 32.7138 22.4677 32.7138 25.3666C32.7138 28.2656 30.6783 30.4242 27.8989 30.4242ZM37.6909 20.47H40.1152V33.678H43.9935V17.0223H37.6909V20.47ZM9.41141 20.2761C11.4481 20.2761 13.064 21.5323 13.6775 23.4007H17.7826C17.0386 19.4066 13.7421 16.7003 9.44434 16.7003C4.5636 16.7003 0.75 20.4054 0.75 25.3666C0.75 30.3279 4.46726 34 9.44434 34C13.6458 34 17.0069 31.2938 17.7508 27.2667H13.6775C13.0957 29.1351 11.4798 30.4242 9.44314 30.4242C6.63079 30.4242 4.65994 28.2656 4.65994 25.3666C4.66117 22.4348 6.6003 20.2761 9.41141 20.2761ZM111.38 23.7556L108.536 23.3373C107.179 23.1446 106.209 22.6933 106.209 21.6299C106.209 20.47 107.47 19.8907 109.182 19.8907C111.057 19.8907 112.253 20.6957 112.512 22.0165H116.261C115.84 18.6663 113.254 16.7016 109.28 16.7016C105.175 16.7016 102.46 18.7956 102.46 21.7591C102.46 24.5934 104.238 26.2374 107.825 26.7521L110.669 27.1704C112.059 27.3631 112.835 27.9119 112.835 28.9424C112.835 30.2632 111.478 30.8108 109.603 30.8108C107.308 30.8108 106.015 29.8766 105.821 28.4595H102.007C102.364 31.7133 104.916 34 109.57 34C113.805 34 116.616 32.067 116.616 28.7485C116.616 25.7849 114.58 24.2385 111.38 23.7556ZM42.0544 10.161C40.6324 10.161 39.5655 11.1915 39.5655 12.6087C39.5655 14.0258 40.6312 15.0563 42.0544 15.0563C43.4764 15.0563 44.5436 14.0258 44.5436 12.6087C44.5436 11.1915 43.4764 10.161 42.0544 10.161ZM98.9696 22.725C98.9696 19.1175 96.7721 16.7016 92.118 16.7016C87.7226 16.7016 85.2663 18.9249 84.7811 22.3396H88.6275C88.8214 21.0189 89.8556 19.9237 92.0535 19.9237C94.0256 19.9237 94.995 20.7932 94.995 21.8567C94.995 23.2422 93.2167 23.5958 91.0192 23.8215C88.0459 24.1434 84.3615 25.1739 84.3615 29.04C84.3615 32.0365 86.592 33.9683 90.1474 33.9683C92.9265 33.9683 94.6717 32.8085 95.5451 30.9718C95.6745 32.6146 96.9026 33.678 98.616 33.678H100.878V30.2315H98.9707V22.725H98.9696ZM95.1559 26.9131C95.1559 29.1363 93.2167 30.7791 90.8569 30.7791C89.4022 30.7791 88.1741 30.1669 88.1741 28.879C88.1741 27.2362 90.1459 26.785 91.956 26.5923C93.7012 26.4313 94.6706 26.0447 95.1559 25.3032V26.9131ZM74.5684 16.7003C72.4024 16.7003 70.5926 17.6028 69.3 19.1163V10H65.4217V33.678H69.2351V31.4877C70.5277 33.0658 72.3709 34 74.5684 34C79.2221 34 82.7456 30.3279 82.7456 25.3666C82.7456 20.4054 79.1576 16.7003 74.5684 16.7003ZM73.9867 30.4242C71.2072 30.4242 69.1706 28.2656 69.1706 25.3666C69.1706 22.4677 71.2391 20.2774 74.0182 20.2774C76.8307 20.2774 78.8014 22.436 78.8014 25.3666C78.8014 28.2656 76.7659 30.4242 73.9867 30.4242ZM56.1454 16.7003C53.6246 16.7003 51.9757 17.7309 51.0064 19.1809V17.0223H47.1596V33.6768H51.0379V24.6252C51.0379 22.0799 52.6537 20.2761 55.0455 20.2761C57.276 20.2761 58.665 21.8543 58.665 24.1422V33.678H62.5432V23.8531C62.5447 19.6639 60.3799 16.7003 56.1454 16.7003ZM135.103 24.8191C135.103 20.0517 131.613 16.7016 126.926 16.7016C121.949 16.7016 118.296 20.4383 118.296 25.3666C118.296 30.5535 122.207 34 126.991 34C131.031 34 134.198 31.6157 135.006 28.2339H130.965C130.383 29.7156 128.961 30.5535 127.054 30.5535C124.565 30.5535 122.69 29.0071 122.271 26.3008H135.102V24.8191H135.103ZM122.497 23.53C123.112 21.2103 124.857 20.0835 126.861 20.0835C129.059 20.0835 130.74 21.3396 131.127 23.53H122.497Z" fill="#5A5D5B"/>
</g>
<defs>
<clipPath id="clip0_0_869">
<rect width="135" height="48" fill="white" transform="translate(0.75)"/>
</clipPath>
</defs>
</svg>
