<svg width="30" height="30" fill="none" xmlns="http://www.w3.org/2000/svg">
  <path d="M27 9.667a2.667 2.667 0 0 1 2.666 2.666v5.334A2.667 2.667 0 0 1 27 20.333h-1.416a10.668 10.668 0 0 1-10.585 9.334V27a8 8 0 0 0 8-8v-8a8 8 0 0 0-16 0v9.333H3a2.667 2.667 0 0 1-2.666-2.666v-5.334a2.667 2.667 0 0 1 2.666-2.666h1.416a10.668 10.668 0 0 1 21.169 0H27ZM9.346 20.047l1.413-2.262A7.963 7.963 0 0 0 15 19c1.5.002 2.97-.419 4.24-1.215l1.414 2.262A10.618 10.618 0 0 1 15 21.667c-2 .003-3.96-.559-5.654-1.62Z" fill="#C9D9D0"/>
</svg>