<svg width="22" height="28" fill="none" xmlns="http://www.w3.org/2000/svg">
  <path d="M9 18h4l-.767-4.3a2.524 2.524 0 0 0 1.05-.967 2.64 2.64 0 0 0 .383-1.4c0-.733-.26-1.36-.783-1.882A2.573 2.573 0 0 0 11 8.667c-.734 0-1.361.261-1.883.784a2.574 2.574 0 0 0-.784 1.882c0 .511.128.978.384 1.4.256.423.606.745 1.05.967L8.998 18Zm2 9.333c-3.09-.777-5.64-2.55-7.651-5.317C1.337 19.249.332 16.176.333 12.8V4.667l10.666-4 10.667 4V12.8c0 3.378-1.005 6.45-3.016 9.217-2.01 2.768-4.56 4.54-7.65 5.316Z" fill="#C9D9D0"/>
</svg>