<svg width="20" height="20" viewBox="0 0 20 20" fill="none" xmlns="http://www.w3.org/2000/svg">
<path d="M5.755 3.78085C5.67909 3.73584 5.59262 3.71173 5.50437 3.71096C5.41612 3.71019 5.32924 3.73279 5.25255 3.77646C5.17586 3.82014 5.1121 3.88333 5.06775 3.95963C5.02339 4.03592 5.00002 4.1226 5 4.21085V15.7892C5.00002 15.8774 5.02339 15.9641 5.06775 16.0404C5.1121 16.1167 5.17586 16.1799 5.25255 16.2236C5.32924 16.2672 5.41612 16.2898 5.50437 16.2891C5.59262 16.2883 5.67909 16.2642 5.755 16.2192L15.5242 10.43C15.5988 10.3857 15.6606 10.3228 15.7035 10.2474C15.7464 10.172 15.769 10.0868 15.769 10C15.769 9.91326 15.7464 9.828 15.7035 9.7526C15.6606 9.67721 15.5988 9.61429 15.5242 9.57002L5.755 3.78085Z" fill="white" stroke="white" stroke-width="1.25" stroke-linecap="round" stroke-linejoin="round"/>
</svg>
