<svg width="126" height="26" viewBox="0 0 126 26" fill="none" xmlns="http://www.w3.org/2000/svg">
<mask id="mask0_0_802" style="mask-type:luminance" maskUnits="userSpaceOnUse" x="0" y="1" width="25" height="24">
<path d="M24.0028 1H0V25H24.0028V1Z" fill="white"/>
</mask>
<g mask="url(#mask0_0_802)">
<path d="M24.0027 4.56317V17.9098H16.9125V1H20.4396C20.9075 1 21.3708 1.09217 21.8031 1.27124C22.2355 1.45031 22.6283 1.71277 22.9591 2.04363C23.29 2.37451 23.5525 2.7673 23.7315 3.19961C23.9106 3.63191 24.0027 4.09526 24.0027 4.56317Z" fill="url(#paint0_linear_0_802)"/>
<path d="M16.9126 1V8.09021H0V4.56317C0.00010945 4.09504 0.0924424 3.63153 0.271721 3.1991C0.451 2.76666 0.713713 2.37378 1.04486 2.0429C1.376 1.71201 1.76908 1.4496 2.20166 1.27066C2.63424 1.09172 3.09782 0.999745 3.56595 1H16.9126Z" fill="url(#paint1_linear_0_802)"/>
<path d="M7.09034 8.08984V24.9996H3.56607C3.09794 24.9999 2.63433 24.908 2.20174 24.7291C1.76915 24.5501 1.37605 24.2877 1.04489 23.9568C0.713743 23.6259 0.451033 23.233 0.271767 22.8006C0.0925011 22.3681 0.000195 21.9046 0.00012207 21.4365V8.08984H7.09034Z" fill="url(#paint2_linear_0_802)"/>
<path d="M24.0027 17.9102V21.4383C24.0027 21.9062 23.9106 22.3696 23.7315 22.8019C23.5525 23.2342 23.29 23.627 22.9591 23.9579C22.6283 24.2887 22.2355 24.5512 21.8032 24.7302C21.3709 24.9093 20.9075 25.0015 20.4396 25.0015H7.09021V17.9113L24.0027 17.9102Z" fill="url(#paint3_linear_0_802)"/>
<g style="mix-blend-mode:multiply" opacity="0.15">
<path d="M24.0028 12.6318V17.9099H16.9126V16.4351L24.0028 12.6318Z" fill="url(#paint4_linear_0_802)"/>
</g>
<g style="mix-blend-mode:multiply" opacity="0.15">
<path d="M12.3099 25.0004H7.09021V17.9102H8.50767L12.3099 25.0004Z" fill="url(#paint5_linear_0_802)"/>
</g>
<g style="mix-blend-mode:multiply" opacity="0.15">
<path d="M7.09028 8.0907V9.57489L6.10352e-05 13.3771V8.0907H7.09028Z" fill="url(#paint6_linear_0_802)"/>
</g>
<g style="mix-blend-mode:multiply" opacity="0.15">
<path d="M16.9655 1V8.91569H16.9126V8.09021H15.4674L11.6652 1H16.9655Z" fill="url(#paint7_linear_0_802)"/>
</g>
<g style="mix-blend-mode:multiply" opacity="0.3">
<path d="M24.0027 17.7208V17.9098H16.9125V17.643L18.6385 17.6318L20.4257 17.643L22.2156 17.6707L24.0027 17.7208Z" fill="url(#paint8_linear_0_802)"/>
</g>
<g style="mix-blend-mode:multiply" opacity="0.3">
<path d="M7.36815 19.4972L7.35703 21.3316L7.32368 23.166L7.26806 25.0004H7.09021V17.9102H7.35981L7.36815 19.4972Z" fill="url(#paint9_linear_0_802)"/>
</g>
<g style="mix-blend-mode:multiply" opacity="0.3">
<path d="M7.09028 8.0907V8.3603L5.43376 8.36586L3.62438 8.35474C2.41535 8.33806 1.20909 8.31305 6.10352e-05 8.2658V8.0907H7.09028Z" fill="url(#paint10_linear_0_802)"/>
</g>
<g style="mix-blend-mode:multiply" opacity="0.3">
<path d="M16.9127 1V8.09021H16.6959L16.6903 6.58101L16.6986 4.7216C16.7181 3.47922 16.7431 2.23961 16.7904 1H16.9127Z" fill="url(#paint11_linear_0_802)"/>
</g>
<g style="mix-blend-mode:screen" opacity="0.4">
<path d="M24.0029 17.9102V21.4383C23.9557 20.8519 23.9195 20.2626 23.8917 19.6762C23.8612 19.1509 23.8417 18.6284 23.8223 18.1058L22.2158 18.1503L20.4258 18.1781L18.6387 18.1892L16.8516 18.1781L15.0644 18.1503L13.2745 18.103C12.0849 18.0558 10.8926 18.0058 9.7002 17.9113L24.0029 17.9102Z" fill="url(#paint12_linear_0_802)"/>
</g>
<g style="mix-blend-mode:overlay" opacity="0.6">
<path d="M7.09015 10.3221V25.0001H3.79102C4.83051 24.9195 5.86722 24.8695 6.90671 24.8306L6.85668 23.1657L6.82333 21.3313L6.81221 19.4969L6.82055 17.6625C6.82333 17.051 6.84 16.4396 6.84834 15.8281C6.85668 15.2166 6.88169 14.6052 6.89837 13.991C6.94284 12.768 6.99565 11.5451 7.09015 10.3221Z" fill="url(#paint13_linear_0_802)"/>
</g>
<g style="mix-blend-mode:screen" opacity="0.4">
<path d="M14.4918 8.09025H6.10352e-05V4.95789C0.0778839 5.94179 0.127914 6.92569 0.166826 7.90959C1.31749 7.8679 2.47094 7.84289 3.62438 7.82621L5.43376 7.8151L7.24592 7.82065C8.45495 7.83177 9.66307 7.85679 10.8702 7.8957C12.0765 7.94295 13.2855 7.99298 14.4918 8.09025Z" fill="url(#paint14_linear_0_802)"/>
</g>
<g style="mix-blend-mode:overlay" opacity="0.6">
<path d="M18.5993 1.10006C18.1157 1.13064 17.6321 1.15009 17.1457 1.16955C17.1902 2.35357 17.2124 3.53758 17.2319 4.7216L17.2402 6.58101L17.2346 8.44042C17.2235 9.68002 17.1985 10.9205 17.1596 12.162C17.1346 12.7818 17.1179 13.4016 17.079 14.0214C17.0401 14.6412 17.0151 15.261 16.965 15.8808C16.9428 15.6168 16.9261 15.3528 16.9122 15.0887V1H20.2364C19.6919 1.04447 19.1444 1.06949 18.5993 1.10006Z" fill="url(#paint15_linear_0_802)"/>
</g>
</g>
<path d="M55.8895 21.1289C55.8817 21.2305 55.6669 21.2812 55.245 21.2812H54.1669L53.4403 21.293H52.7255L51.5887 21.3047C50.4559 21.3047 49.5145 21.2773 48.7645 21.2227C48.7411 21.2148 48.7137 21.168 48.6825 21.082L48.6239 20.8359C48.5536 20.0312 48.37 19.2539 48.0731 18.5039L43.0575 18.5508C43.0262 18.6836 42.9247 19.0781 42.7528 19.7344C42.5809 20.3906 42.452 20.8867 42.3661 21.2227C42.288 21.3008 41.9169 21.3398 41.2528 21.3398L40.9598 21.3281H40.2802L37.2333 21.3984H36.8817L36.5536 21.4102H35.7333C35.6786 21.3555 35.62 21.2852 35.5575 21.1992C36.3387 18.4961 37.3973 15.1445 38.7333 11.1445L39.0028 10.3125H38.9911L39.3075 9.33984C39.4091 9.02734 39.6981 8.16016 40.1747 6.73828C40.6591 5.31641 40.9598 4.39844 41.077 3.98438C41.202 3.57031 41.2762 3.35547 41.2997 3.33984H43.245L47.4052 3.28125L48.5302 3.33984L49.4559 3.28125C49.9247 3.28125 50.1591 3.375 50.1591 3.5625C50.9403 5.74219 51.9833 8.87891 53.288 12.9727C54.5927 17.0664 55.327 19.3672 55.4911 19.875L55.6552 20.4609C55.7098 20.6719 55.788 20.8945 55.8895 21.1289ZM44.288 14.7305L44.7684 14.7422L47.5692 14.7305C47.452 13.8008 47.3622 13.1172 47.2997 12.6797L46.8544 10.6758C46.3856 8.60547 46.1434 7.55078 46.1278 7.51172C46.1122 7.47266 46.0966 7.4375 46.0809 7.40625C46.0731 7.36719 46.0653 7.34375 46.0575 7.33594C46.0497 7.32031 46.038 7.29688 46.0223 7.26562C46.0145 7.23437 46.0028 7.21484 45.9872 7.20703C45.9794 7.19141 45.9677 7.17188 45.952 7.14844C45.8973 7.05469 45.7841 6.97266 45.6122 6.90234C45.4012 6.94922 44.7723 9.30078 43.7255 13.957L43.5966 14.7305H44.288ZM55.7081 16.1602L61.9073 16.0547C62.0636 16.0547 62.1925 16.1875 62.2941 16.4531C62.4034 16.7188 62.5089 16.9297 62.6105 17.0859C62.8527 17.4609 63.2511 17.6484 63.8058 17.6484C64.3683 17.6484 64.8214 17.5195 65.1652 17.2617C65.5089 16.9961 65.6808 16.6562 65.6808 16.2422C65.6808 15.8281 65.5753 15.5469 65.3644 15.3984C65.1534 15.2422 64.923 15.0938 64.673 14.9531C64.423 14.8047 64.0519 14.6914 63.5597 14.6133C63.0753 14.5352 62.8097 14.4883 62.7628 14.4727H62.7862L62.1183 14.2969C61.6886 14.2188 61.3292 14.1328 61.0402 14.0391C59.173 13.5391 57.8214 12.9102 56.9855 12.1523C56.1573 11.3945 55.7433 10.375 55.7433 9.09375C55.7433 8.16406 55.9152 7.32812 56.2589 6.58594C56.6027 5.84375 57.0519 5.23828 57.6066 4.76953C59.2081 3.41797 61.4191 2.74219 64.2394 2.74219C66.4816 2.74219 68.2433 3.14844 69.5245 3.96094H69.5128C70.3331 4.55469 70.8956 5.14063 71.2003 5.71875C71.505 6.28906 71.6964 6.99609 71.7745 7.83984L71.4698 8.14453C69.4152 8.22266 67.5948 8.26172 66.0089 8.26172C65.5323 8.26172 65.2472 8.12109 65.1534 7.83984C65.1144 7.72266 65.0714 7.60547 65.0245 7.48828C64.9152 7.20703 64.5636 7.06641 63.9698 7.06641H63.923C63.462 7.06641 63.0675 7.17578 62.7394 7.39453C62.4112 7.60547 62.2433 7.8125 62.2355 8.01562C62.2355 8.21875 62.2784 8.38672 62.3644 8.51953C62.4581 8.65234 62.5558 8.75781 62.6573 8.83594C62.7589 8.91406 62.9152 8.99609 63.1261 9.08203C63.337 9.16016 63.4933 9.21484 63.5948 9.24609C63.7042 9.26953 63.8722 9.3125 64.0987 9.375L64.5089 9.48047C64.673 9.52734 65.1495 9.64453 65.9386 9.83203C66.7355 10.0195 67.3995 10.1992 67.9308 10.3711V10.3594C69.5948 10.9219 70.7277 11.625 71.3292 12.4688C71.9386 13.3047 72.2433 14.2812 72.2433 15.3984C72.2433 18.375 70.4659 20.3047 66.9112 21.1875C65.88 21.4453 64.7784 21.6289 63.6066 21.7383C62.1691 21.7383 60.7472 21.5273 59.3409 21.1055C57.9347 20.6836 56.9933 19.9961 56.5167 19.043C56.1964 18.582 55.9816 18.1602 55.8722 17.7773C55.7628 17.3867 55.673 16.8438 55.6027 16.1484C55.6261 16.1562 55.6612 16.1602 55.7081 16.1602ZM87.8002 7.69922C87.8002 7.95703 87.7728 8.08594 87.7181 8.08594C87.7181 8.08594 86.3041 8.07422 83.4759 8.05078C83.4603 8.80859 83.4525 9.99219 83.4525 11.6016C83.4525 13.2109 83.4564 14.3281 83.4642 14.9531L83.5111 21.1641C83.472 21.2734 83.3939 21.332 83.2767 21.3398L80.8041 21.3047L80.7923 21.3164L80.0189 21.3047H77.8744C77.2962 21.3047 76.8627 21.3086 76.5736 21.3164L76.3744 21.1406C76.3666 21.1328 76.3158 21.0703 76.222 20.9531C76.222 20.2656 76.2494 18.7383 76.3041 16.3711L76.433 10.1367L76.4095 9.84375C76.3548 9.07031 76.3002 8.61328 76.2455 8.47266C76.1986 8.32422 76.1009 8.24609 75.9525 8.23828C75.8041 8.22266 75.6947 8.21484 75.6244 8.21484L75.1556 8.23828L72.2494 8.19141C72.1478 7.98828 72.097 7.53125 72.097 6.82031L72.1205 5.78906V5.47266C72.1127 4.22266 72.1009 3.55469 72.0853 3.46875C72.1009 3.46875 72.1322 3.47656 72.1791 3.49219L87.097 3.36328C87.4017 3.36328 87.5931 3.38672 87.6712 3.43359C87.7494 3.47266 87.7884 3.55078 87.7884 3.66797V6.76172L87.8002 7.69922ZM93.8883 3.375L97.65 3.33984C98.4469 3.33984 99.1695 3.35547 99.818 3.38672C101.56 3.43359 102.884 3.84375 103.791 4.61719C104.705 5.39062 105.162 6.48047 105.162 7.88672C105.162 8.86328 104.877 9.69922 104.306 10.3945C103.736 11.082 102.904 11.6875 101.81 12.2109C103.545 12.7578 104.595 14.0859 104.962 16.1953C105.048 16.6562 105.115 17.1836 105.162 17.7773C105.216 18.3711 105.259 18.7695 105.291 18.9727L105.408 19.5703C105.533 20.2734 105.642 20.7812 105.736 21.0938L105.689 21.1289C104.361 21.2148 103.146 21.2578 102.045 21.2578C100.951 21.2578 99.982 21.2383 99.1383 21.1992H99.068C98.8258 21.1992 98.568 20.0469 98.2945 17.7422L98.2359 17.2383C98.2047 16.3789 98.0523 15.8008 97.7789 15.5039C97.5133 15.207 97.0484 15.0586 96.3844 15.0586L96.232 15.0703H95.6109V18.6328L95.6227 19.0078V21.1523C95.5992 21.2305 95.5406 21.2773 95.4469 21.293C94.5875 21.3242 93.3727 21.3398 91.8023 21.3398C90.2398 21.3398 89.2086 21.3438 88.7086 21.3516L88.6383 21.3281L88.6148 21.3398C88.5992 21.3398 88.5758 21.3281 88.5445 21.3047L88.568 20.25L88.5562 19.8984L88.6031 15.0352V14.1797L88.6148 13.3008L88.6266 10.2656L88.6383 9.86719L88.6031 7.20703C88.6031 7.20703 88.6187 5.96094 88.65 3.46875C88.65 3.40625 88.8727 3.375 89.318 3.375L90.068 3.38672H90.7828L92.2711 3.39844L93.8883 3.375ZM105.806 21.0586L105.748 21.0938V21.0703C105.748 21.0625 105.767 21.0586 105.806 21.0586ZM105.748 21.0938V21.1055C105.74 21.1055 105.736 21.1016 105.736 21.0938H105.748ZM98.2242 7.19531C97.7555 6.99219 97.1305 6.89062 96.3492 6.89062H95.6695C95.5836 7.01563 95.5406 7.67578 95.5406 8.87109C95.5406 10.0586 95.5602 10.8555 95.5992 11.2617C98.0445 11.207 99.2672 10.3633 99.2672 8.73047C99.2672 8.03516 98.9195 7.52344 98.2242 7.19531ZM125.289 21.1289C125.281 21.2305 125.066 21.2812 124.644 21.2812H123.566L122.84 21.293H122.125L120.988 21.3047C119.855 21.3047 118.914 21.2773 118.164 21.2227C118.14 21.2148 118.113 21.168 118.082 21.082L118.023 20.8359C117.953 20.0312 117.769 19.2539 117.472 18.5039L112.457 18.5508C112.426 18.6836 112.324 19.0781 112.152 19.7344C111.98 20.3906 111.851 20.8867 111.765 21.2227C111.687 21.3008 111.316 21.3398 110.652 21.3398L110.359 21.3281H109.68L106.633 21.3984H106.281L105.953 21.4102H105.133C105.078 21.3555 105.019 21.2852 104.957 21.1992C105.738 18.4961 106.797 15.1445 108.133 11.1445L108.402 10.3125H108.39L108.707 9.33984C108.808 9.02734 109.097 8.16016 109.574 6.73828C110.058 5.31641 110.359 4.39844 110.476 3.98438C110.601 3.57031 110.676 3.35547 110.699 3.33984H112.644L116.805 3.28125L117.93 3.33984L118.855 3.28125C119.324 3.28125 119.558 3.375 119.558 3.5625C120.34 5.74219 121.383 8.87891 122.687 12.9727C123.992 17.0664 124.726 19.3672 124.89 19.875L125.055 20.4609C125.109 20.6719 125.187 20.8945 125.289 21.1289ZM113.687 14.7305L114.168 14.7422L116.969 14.7305C116.851 13.8008 116.762 13.1172 116.699 12.6797L116.254 10.6758C115.785 8.60547 115.543 7.55078 115.527 7.51172C115.512 7.47266 115.496 7.4375 115.48 7.40625C115.472 7.36719 115.465 7.34375 115.457 7.33594C115.449 7.32031 115.437 7.29688 115.422 7.26562C115.414 7.23437 115.402 7.21484 115.387 7.20703C115.379 7.19141 115.367 7.17188 115.351 7.14844C115.297 7.05469 115.183 6.97266 115.012 6.90234C114.801 6.94922 114.172 9.30078 113.125 13.957L112.996 14.7305H113.687Z" fill="white"/>
<defs>
<linearGradient id="paint0_linear_0_802" x1="23.9602" y1="9.45489" x2="17.0969" y2="9.45489" gradientUnits="userSpaceOnUse">
<stop offset="0.033" stop-color="#187718"/>
<stop offset="0.288" stop-color="#24B428"/>
<stop offset="1" stop-color="#43FF48"/>
</linearGradient>
<linearGradient id="paint1_linear_0_802" x1="16.8111" y1="4.54511" x2="0.439727" y2="4.54511" gradientUnits="userSpaceOnUse">
<stop offset="0.033" stop-color="#187718"/>
<stop offset="0.288" stop-color="#24B428"/>
<stop offset="1" stop-color="#43FF48"/>
</linearGradient>
<linearGradient id="paint2_linear_0_802" x1="7.0478" y1="16.5447" x2="0.184468" y2="16.5447" gradientUnits="userSpaceOnUse">
<stop offset="0.033" stop-color="#187718"/>
<stop offset="0.288" stop-color="#24B428"/>
<stop offset="1" stop-color="#43FF48"/>
</linearGradient>
<linearGradient id="paint3_linear_0_802" x1="23.9013" y1="21.4558" x2="7.52994" y2="21.4558" gradientUnits="userSpaceOnUse">
<stop offset="0.033" stop-color="#187718"/>
<stop offset="0.288" stop-color="#24B428"/>
<stop offset="1" stop-color="#43FF48"/>
</linearGradient>
<linearGradient id="paint4_linear_0_802" x1="23.9603" y1="15.2709" x2="17.0969" y2="15.2709" gradientUnits="userSpaceOnUse">
<stop offset="0.033" stop-color="#187718"/>
<stop offset="0.288" stop-color="#24B428"/>
<stop offset="1" stop-color="#43FF48"/>
</linearGradient>
<linearGradient id="paint5_linear_0_802" x1="12.2786" y1="21.4553" x2="7.22592" y2="21.4553" gradientUnits="userSpaceOnUse">
<stop offset="0.033" stop-color="#187718"/>
<stop offset="0.288" stop-color="#24B428"/>
<stop offset="1" stop-color="#43FF48"/>
</linearGradient>
<linearGradient id="paint6_linear_0_802" x1="7.04773" y1="10.7339" x2="0.184407" y2="10.7339" gradientUnits="userSpaceOnUse">
<stop offset="0.033" stop-color="#187718"/>
<stop offset="0.288" stop-color="#24B428"/>
<stop offset="1" stop-color="#43FF48"/>
</linearGradient>
<linearGradient id="paint7_linear_0_802" x1="16.9336" y1="4.95785" x2="11.803" y2="4.95785" gradientUnits="userSpaceOnUse">
<stop offset="0.033" stop-color="#187718"/>
<stop offset="0.288" stop-color="#24B428"/>
<stop offset="1" stop-color="#43FF48"/>
</linearGradient>
<linearGradient id="paint8_linear_0_802" x1="23.9602" y1="17.7708" x2="17.0969" y2="17.7708" gradientUnits="userSpaceOnUse">
<stop offset="0.033" stop-color="#187718"/>
<stop offset="0.288" stop-color="#24B428"/>
<stop offset="1" stop-color="#43FF48"/>
</linearGradient>
<linearGradient id="paint9_linear_0_802" x1="7.36648" y1="21.4553" x2="7.09744" y2="21.4553" gradientUnits="userSpaceOnUse">
<stop offset="0.033" stop-color="#187718"/>
<stop offset="0.288" stop-color="#24B428"/>
<stop offset="1" stop-color="#43FF48"/>
</linearGradient>
<linearGradient id="paint10_linear_0_802" x1="7.04773" y1="8.22828" x2="0.184407" y2="8.22828" gradientUnits="userSpaceOnUse">
<stop offset="0.033" stop-color="#187718"/>
<stop offset="0.288" stop-color="#24B428"/>
<stop offset="1" stop-color="#43FF48"/>
</linearGradient>
<linearGradient id="paint11_linear_0_802" x1="16.9113" y1="4.54511" x2="16.6961" y2="4.54511" gradientUnits="userSpaceOnUse">
<stop offset="0.033" stop-color="#187718"/>
<stop offset="0.288" stop-color="#24B428"/>
<stop offset="1" stop-color="#43FF48"/>
</linearGradient>
<linearGradient id="paint12_linear_0_802" x1="23.9171" y1="19.6742" x2="10.0721" y2="19.6742" gradientUnits="userSpaceOnUse">
<stop offset="0.033" stop-color="#187718"/>
<stop offset="0.288" stop-color="#24B428"/>
<stop offset="1" stop-color="#43FF48"/>
</linearGradient>
<linearGradient id="paint13_linear_0_802" x1="7.07035" y1="17.6611" x2="3.87679" y2="17.6611" gradientUnits="userSpaceOnUse">
<stop offset="0.033" stop-color="#187718"/>
<stop offset="0.288" stop-color="#24B428"/>
<stop offset="1" stop-color="#43FF48"/>
</linearGradient>
<linearGradient id="paint14_linear_0_802" x1="14.4048" y1="6.52407" x2="0.376846" y2="6.52407" gradientUnits="userSpaceOnUse">
<stop offset="0.033" stop-color="#187718"/>
<stop offset="0.288" stop-color="#24B428"/>
<stop offset="1" stop-color="#43FF48"/>
</linearGradient>
<linearGradient id="paint15_linear_0_802" x1="20.2164" y1="8.44042" x2="16.9987" y2="8.44042" gradientUnits="userSpaceOnUse">
<stop offset="0.033" stop-color="#187718"/>
<stop offset="0.288" stop-color="#24B428"/>
<stop offset="1" stop-color="#43FF48"/>
</linearGradient>
</defs>
</svg>
