<svg width="16" height="16" viewBox="0 0 16 16" fill="none" xmlns="http://www.w3.org/2000/svg">
<g clip-path="url(#clip0_0_872)">
<path d="M6.50002 16C6.342 16.0008 6.1875 15.9534 6.05717 15.864C5.92684 15.7747 5.82688 15.6477 5.77064 15.5L4.52564 12.2625C4.50043 12.1973 4.46185 12.138 4.4124 12.0886C4.36294 12.0391 4.30369 12.0006 4.23845 11.9753L1.00002 10.7294C0.8525 10.6728 0.725617 10.5728 0.636116 10.4426C0.546615 10.3123 0.498702 10.158 0.498702 10C0.498702 9.84203 0.546615 9.68773 0.636116 9.55751C0.725617 9.4273 0.8525 9.32728 1.00002 9.27066L4.23752 8.02566C4.30276 8.00045 4.362 7.96187 4.41146 7.91242C4.46092 7.86296 4.49949 7.80371 4.5247 7.73847L5.77064 4.50004C5.82726 4.35252 5.92728 4.22564 6.05749 4.13613C6.18771 4.04663 6.34201 3.99872 6.50002 3.99872C6.65803 3.99872 6.81232 4.04663 6.94254 4.13613C7.07276 4.22564 7.17277 4.35252 7.22939 4.50004L8.47439 7.73754C8.49961 7.80277 8.53818 7.86202 8.58764 7.91148C8.63709 7.96093 8.69634 7.99951 8.76158 8.02472L11.9803 9.26316C12.1339 9.32007 12.2661 9.4229 12.3591 9.55766C12.4521 9.69242 12.5013 9.85256 12.5 10.0163C12.4976 10.1715 12.4487 10.3225 12.3596 10.4497C12.2704 10.5768 12.1452 10.6742 12 10.7294L8.76252 11.9744C8.69728 11.9996 8.63803 12.0382 8.58857 12.0877C8.53912 12.1371 8.50054 12.1964 8.47533 12.2616L7.22939 15.5C7.17316 15.6477 7.0732 15.7747 6.94286 15.864C6.81253 15.9534 6.65803 16.0008 6.50002 16ZM2.75002 5.50004C2.65738 5.50003 2.56691 5.47196 2.49054 5.41952C2.41418 5.36708 2.35548 5.29274 2.3222 5.20629L1.79533 3.83629C1.78391 3.80632 1.76629 3.77911 1.74361 3.75644C1.72094 3.73377 1.69373 3.71614 1.66377 3.70472L0.293767 3.17785C0.207323 3.14456 0.132991 3.08586 0.0805648 3.0095C0.0281381 2.93313 7.62939e-05 2.84267 7.62939e-05 2.75004C7.62939e-05 2.6574 0.0281381 2.56694 0.0805648 2.49058C0.132991 2.41421 0.207323 2.35551 0.293767 2.32222L1.66377 1.79535C1.6937 1.78388 1.72088 1.76623 1.74355 1.74357C1.76622 1.7209 1.78386 1.69372 1.79533 1.66379L2.31752 0.305973C2.34697 0.226036 2.39764 0.155636 2.4641 0.102338C2.53056 0.0490409 2.61028 0.0148613 2.69471 0.00347314C2.79606 -0.00884866 2.89863 0.0130196 2.98615 0.0656104C3.07367 0.118201 3.14113 0.198504 3.17783 0.293786L3.7047 1.66379C3.71618 1.69372 3.73382 1.7209 3.75648 1.74357C3.77915 1.76623 3.80633 1.78388 3.83627 1.79535L5.20627 2.32222C5.29271 2.35551 5.36704 2.41421 5.41947 2.49058C5.4719 2.56694 5.49996 2.6574 5.49996 2.75004C5.49996 2.84267 5.4719 2.93313 5.41947 3.0095C5.36704 3.08586 5.29271 3.14456 5.20627 3.17785L3.83627 3.70472C3.80631 3.71614 3.77909 3.73377 3.75642 3.75644C3.73375 3.77911 3.71612 3.80632 3.7047 3.83629L3.17783 5.20629C3.14455 5.29274 3.08586 5.36708 3.00949 5.41952C2.93312 5.47196 2.84266 5.50003 2.75002 5.50004ZM12.5 8.00004C12.399 8 12.3003 7.96935 12.217 7.91211C12.1337 7.85488 12.0697 7.77374 12.0335 7.67941L11.3197 5.8241C11.3071 5.79141 11.2879 5.76172 11.2631 5.73695C11.2383 5.71219 11.2086 5.6929 11.176 5.68035L9.32064 4.9666C9.22638 4.93028 9.14534 4.86626 9.08818 4.78298C9.03101 4.69969 9.00042 4.60105 9.00042 4.50004C9.00042 4.39902 9.03101 4.30038 9.08818 4.21709C9.14534 4.13381 9.22638 4.06979 9.32064 4.03347L11.176 3.31972C11.2086 3.30717 11.2383 3.28788 11.2631 3.26312C11.2879 3.23836 11.3071 3.20867 11.3197 3.17597L12.0281 1.33379C12.0605 1.24667 12.1158 1.16995 12.1883 1.11179C12.2608 1.05362 12.3477 1.01619 12.4397 1.00347C12.5503 0.990084 12.6622 1.01402 12.7577 1.07148C12.8531 1.12895 12.9267 1.21665 12.9666 1.32066L13.6803 3.17597C13.6929 3.20867 13.7122 3.23836 13.7369 3.26312C13.7617 3.28788 13.7914 3.30717 13.8241 3.31972L15.6794 4.03347C15.7737 4.06979 15.8547 4.13381 15.9119 4.21709C15.969 4.30038 15.9996 4.39902 15.9996 4.50004C15.9996 4.60105 15.969 4.69969 15.9119 4.78298C15.8547 4.86626 15.7737 4.93028 15.6794 4.9666L13.8241 5.68035C13.7914 5.6929 13.7617 5.71219 13.7369 5.73695C13.7122 5.76172 13.6929 5.79141 13.6803 5.8241L12.9666 7.67941C12.9303 7.77374 12.8663 7.85488 12.783 7.91211C12.6998 7.96935 12.6011 8 12.5 8.00004Z" fill="#2BDB32"/>
</g>
<defs>
<clipPath id="clip0_0_872">
<rect width="16" height="16" fill="white"/>
</clipPath>
</defs>
</svg>
